<?xml version="1.0" encoding="UTF-8" standalone="no"?><!DOCTYPE svg PUBLIC "-//W3C//DTD SVG 1.1//EN" "http://www.w3.org/Graphics/SVG/1.1/DTD/svg11.dtd"><svg width="100%" height="100%" viewBox="0 0 2693 1538" version="1.1" xmlns="http://www.w3.org/2000/svg" xmlns:xlink="http://www.w3.org/1999/xlink" xml:space="preserve" xmlns:serif="http://www.serif.com/" style="fill-rule:evenodd;clip-rule:evenodd;stroke-linejoin:round;stroke-miterlimit:2;"><g id="Rev3"><g id="premerged-corr2"><path d="M2692.14,0l-0,1537.15l-2692.14,0l0,-1537.15l2692.14,0Zm-660.975,748.095l-8.157,56.629c-6.985,7.127 -6.985,7.127 -53.244,6.031l52.898,8.546c6.639,7.451 6.639,7.451 5.466,56.952l8.157,-56.629c6.984,-7.127 6.984,-7.127 53.244,-6.031l-52.898,-8.547c-6.639,-7.45 -6.639,-7.45 -5.466,-56.951Zm-1889.65,296.999l-22.244,72.383c-0.987,3.212 -2.933,6.141 -5.641,8.491c-2.707,2.351 -6.081,4.039 -9.781,4.896l-83.384,19.31l83.384,19.31c3.7,0.857 7.074,2.546 9.781,4.896c2.708,2.351 4.654,5.28 5.641,8.491l22.244,72.383l22.245,-72.383c0.987,-3.211 2.933,-6.14 5.64,-8.491c2.708,-2.35 6.082,-4.039 9.782,-4.896l83.383,-19.31l-83.383,-19.31c-3.7,-0.857 -7.074,-2.545 -9.782,-4.896c-2.707,-2.35 -4.653,-5.279 -5.64,-8.491l-22.245,-72.383Zm707.86,169.367c-2.638,-0.061 -5.442,-0.127 -8.425,-0.198l8.811,1.616c1.443,6.24 1.166,17.952 0.444,48.433l6.785,-47.108l40.833,7.488c7.112,9.25 7.112,9.25 5.652,70.89l9.003,-70.543c7.542,-8.902 7.542,-8.902 57.303,-7.723l-56.873,-10.429c-1.502,-1.953 -2.687,-3.494 -3.608,-5.29l2.306,0.054l-2.478,-0.4c-3.259,-6.724 -3.004,-17.459 -1.872,-65.254l-8.121,63.639l-40.428,-6.531c-6.639,-7.45 -6.639,-7.45 -5.466,-56.952l-8.157,56.629c-6.984,7.128 -6.984,7.128 -53.244,6.031l52.899,8.547c2.219,2.49 3.696,4.148 4.636,7.101Zm49.54,-13.103l-0.661,5.182c-6.602,7.792 -7.425,8.764 -40.894,8.094l1.002,-6.951c6.276,-6.406 6.912,-7.055 40.553,-6.325Zm1686.33,-793.178c1.568,6.124 1.295,17.648 0.554,48.889l7.017,-48.711l0.305,0.007l-0.299,-0.048l1.134,-7.877c6.985,-7.127 6.985,-7.127 53.245,-6.031l-52.899,-8.546c-0.47,-0.528 -0.907,-1.018 -1.312,-1.491l2.711,-18.821c6.984,-7.128 6.984,-7.128 53.244,-6.032l-52.899,-8.546c-6.638,-7.45 -6.638,-7.45 -5.466,-56.952l-8.157,56.629c-6.709,6.847 -6.973,7.117 -47.989,6.156c0.091,-4.151 0.201,-8.776 0.323,-13.939l-2.002,13.899c-1.16,-0.027 -2.352,-0.055 -3.576,-0.084l3.506,0.566l-4.945,34.331l-0.305,-0.008l0.299,0.049l-1.134,7.876c-6.984,7.127 -6.984,7.127 -53.244,6.031l52.898,8.547c6.639,7.45 6.639,7.45 5.466,56.951l8.157,-56.629c6.563,-6.697 6.959,-7.101 45.368,-6.216Zm-50.826,-50.652l47.659,7.7c0.47,0.527 0.907,1.017 1.312,1.49l-2.711,18.822c-6.563,6.698 -6.959,7.101 -45.367,6.216c-1.294,-5.052 -1.334,-13.782 -0.893,-34.228Zm1.226,35.37l44.688,7.22c2.174,2.439 3.636,4.08 4.578,6.921l-44.688,-7.22c-2.174,-2.44 -3.636,-4.08 -4.578,-6.921Zm-2183.52,911.422c4.168,5.561 4.025,11.604 3.019,54.059l8.157,-56.629c6.984,-7.127 6.984,-7.127 53.244,-6.031l-35.364,-5.714l62.175,-30.633l-23.115,77.478c-1.122,3.761 -3.334,7.19 -6.412,9.943c-3.078,2.752 -6.914,4.73 -11.12,5.733l-94.793,22.613l94.793,22.612c4.206,1.003 8.042,2.981 11.12,5.734c3.078,2.752 5.29,6.182 6.412,9.943l25.288,84.762l25.289,-84.762c1.122,-3.761 3.334,-7.191 6.412,-9.943c3.078,-2.753 6.914,-4.731 11.12,-5.734l73.955,-17.642c-0.034,7.296 -0.266,17.125 -0.587,30.649l4.551,-31.594l16.874,-4.025l-15.753,-3.758l2.485,-17.252c6.984,-7.127 6.984,-7.127 53.244,-6.031l-52.898,-8.546c-0.545,-0.611 -1.044,-1.172 -1.502,-1.714l2.989,-20.75c6.984,-7.127 6.984,-7.127 53.244,-6.031l-52.899,-8.546c-4.629,-5.195 -6.03,-6.768 -6.057,-24.027c6.894,-0.538 18.378,-0.266 39.572,0.236l-39.535,-6.387c0.081,-6.809 0.287,-15.51 0.554,-26.774l-3.781,26.252l-10.137,-1.637c-6.639,-7.451 -6.639,-7.451 -5.466,-56.952l-8.157,56.629c-6.984,7.127 -6.984,7.127 -53.244,6.031l52.899,8.547c4.629,5.195 6.03,6.767 6.057,24.027c-6.895,0.537 -18.379,0.265 -39.572,-0.237l39.535,6.387c-0.081,6.809 -0.288,15.51 -0.555,26.774l3.782,-26.252l10.137,1.637c0.544,0.611 1.044,1.172 1.502,1.714l-2.989,20.75c-6.985,7.127 -6.985,7.127 -53.244,6.031l52.898,8.547c3.822,4.289 5.444,6.109 5.908,16.326l-73.81,-17.607c-4.206,-1.003 -8.042,-2.981 -11.12,-5.733c-3.078,-2.753 -5.29,-6.182 -6.412,-9.943l-23.672,-79.345l481.715,-237.335l15.848,40.224l0.028,-0.01l15.331,38.941l-0.019,0.008l69.513,176.437l305.483,-0l0,-455.721l103.446,-50.966l330.599,506.687l181.295,-0l-343.417,-483.488l42.207,10.068c4.206,1.004 8.042,2.981 11.12,5.734c3.078,2.752 5.29,6.182 6.412,9.943l25.288,84.762l25.289,-84.762c1.122,-3.761 3.334,-7.191 6.412,-9.943c3.078,-2.753 6.914,-4.73 11.12,-5.734l94.793,-22.612l-94.793,-22.613c-4.206,-1.003 -8.042,-2.981 -11.12,-5.733c-3.078,-2.752 -5.29,-6.182 -6.412,-9.943l-25.289,-84.762l-25.288,84.762c-1.122,3.761 -3.334,7.191 -6.412,9.943c-3.078,2.752 -6.914,4.73 -11.12,5.733l-57.445,13.704l-40.644,-57.221l12.246,-6.033c4.383,-1.693 6.814,-2.543 7.954,-2.916c-0.756,0.197 -1.933,0.451 -3.116,0.533l465.186,-229.191l-6.927,48.089c-6.984,7.128 -6.984,7.128 -53.244,6.032l52.623,8.502l-2.803,19.464c-6.985,7.127 -6.985,7.127 -53.244,6.031l52.898,8.547c6.639,7.45 6.639,7.45 5.466,56.951l8.157,-56.629c6.984,-7.127 6.984,-7.127 53.244,-6.031l-52.623,-8.502l2.804,-19.464c6.984,-7.128 6.984,-7.128 53.244,-6.031l-52.899,-8.547c-6.259,-7.023 -6.617,-7.426 -5.655,-48.925l81.223,-40.018l0,842.197l108.322,-0l-0,-895.565l435.469,-214.55l-42.751,-86.771l-355.181,174.993l-74.646,-17.806c-4.206,-1.004 -8.042,-2.981 -11.12,-5.734c-3.078,-2.752 -5.29,-6.182 -6.412,-9.943l-25.289,-84.762l-25.288,84.762c-1.122,3.761 -3.334,7.191 -6.412,9.943c-3.078,2.753 -6.914,4.73 -11.12,5.734l-94.793,22.612l94.793,22.612c4.206,1.004 8.042,2.982 11.12,5.734c3.078,2.752 5.29,6.182 6.412,9.943l7.085,23.748l-275.316,135.644l17.3,-57.984c1.122,-3.761 3.334,-7.191 6.412,-9.944c3.078,-2.752 6.914,-4.73 11.12,-5.733l94.793,-22.613l-94.793,-22.612c-4.206,-1.003 -8.042,-2.981 -11.12,-5.733c-3.078,-2.753 -5.29,-6.183 -6.412,-9.944l-25.289,-84.762l-25.288,84.762c-1.122,3.761 -3.334,7.191 -6.412,9.944c-3.078,2.752 -6.914,4.73 -11.12,5.733l-82.686,19.724c-5.01,-8.269 -10.49,-15.92 -16.357,-22.806c-44.517,-52.249 -80.216,-100.825 -196.898,-100.825l-314.902,0l-0,301.576c-6.824,0.603 -18.352,0.33 -40.166,-0.187l40.166,6.489l-0,209.078l-61.783,-14.738c-4.206,-1.004 -8.042,-2.981 -11.12,-5.734c-3.078,-2.752 -5.29,-6.182 -6.412,-9.943l-25.288,-84.762l-25.289,84.762c-1.122,3.761 -3.334,7.191 -6.412,9.943c-3.078,2.753 -6.914,4.73 -11.12,5.734l-57.391,13.69l-201.777,-515.908l-145.689,0l-405.415,1020.62l-143.752,70.825l42.751,86.771l221.981,-109.368Zm639.598,-533.264l49.694,11.855c4.206,1.003 8.042,2.981 11.12,5.733c3.078,2.753 5.29,6.182 6.412,9.943l12.917,43.293l-43.97,21.664l-36.173,-92.488Zm109.151,56.532l8.652,-29.001c1.122,-3.761 3.334,-7.19 6.412,-9.943c3.078,-2.752 6.914,-4.73 11.12,-5.733l61.783,-14.738l-0,16.075l-87.967,43.34Zm620.007,-461.786l78.803,18.798c4.206,1.003 8.042,2.981 11.12,5.733c3.078,2.753 5.29,6.183 6.412,9.944l19.347,64.847l-89.841,44.264c7.905,-50.444 -3.569,-103.366 -25.841,-143.586Zm447.609,-64.214l0.811,-2.719c1.122,-3.761 3.334,-7.191 6.412,-9.943c3.078,-2.752 6.914,-4.73 11.12,-5.734l36.824,-8.784l-55.167,27.18Zm-597.204,403.071c0.955,-0.248 1.236,-0.404 -0,0Zm-1169.81,467.512l73.183,-184.593c0,0 43.79,-112.099 43.756,-110.356l177.616,-447.96l176.506,447.96l20.743,52.644l-491.804,242.305Zm369.932,-235.65c1.568,6.124 1.295,17.649 0.555,48.89l7.017,-48.712l0.305,0.007l-0.299,-0.048l1.134,-7.876c6.984,-7.128 6.984,-7.128 53.244,-6.032l-52.899,-8.546c-0.47,-0.528 -0.906,-1.018 -1.312,-1.491l2.712,-18.821c6.984,-7.128 6.984,-7.128 53.244,-6.031l-52.899,-8.547c-6.639,-7.45 -6.639,-7.45 -5.466,-56.952l-8.157,56.629c-6.709,6.847 -6.973,7.117 -47.989,6.156c0.091,-4.151 0.2,-8.776 0.323,-13.939l-2.003,13.899c-1.16,-0.027 -2.351,-0.055 -3.575,-0.084l3.506,0.566l-4.945,34.331l-0.306,-0.008l0.3,0.049l-1.135,7.876c-6.984,7.127 -6.984,7.127 -53.244,6.031l52.899,8.547c6.639,7.45 6.639,7.45 5.466,56.951l8.157,-56.629c6.563,-6.697 6.959,-7.101 45.367,-6.216Zm-49.599,-15.282l44.688,7.22c2.174,2.439 3.636,4.08 4.578,6.921l-44.689,-7.22c-2.173,-2.44 -3.635,-4.08 -4.577,-6.921Zm-1.227,-35.37l47.66,7.7c0.47,0.527 0.906,1.018 1.312,1.491l-2.712,18.821c-6.563,6.698 -6.958,7.102 -45.367,6.216c-1.293,-5.052 -1.334,-13.781 -0.893,-34.228Zm-150.235,19.798l-8.157,56.629c-6.984,7.128 -6.984,7.128 -53.244,6.032l52.898,8.546c6.639,7.45 6.639,7.45 5.466,56.952l8.157,-56.629c6.985,-7.128 6.985,-7.128 53.245,-6.032l-52.899,-8.546c-6.639,-7.45 -6.639,-7.45 -5.466,-56.952Zm618.492,160.777l-55.191,-8.917c-9.401,-10.55 -9.401,-10.55 -7.74,-80.647l-11.551,80.19c-2.948,3.009 -5.018,5.121 -8.207,6.562l-42.895,-109.676l125.584,-61.874l-0,174.362Zm-61.419,51.57l5.739,-39.844c8.778,-8.958 9.765,-9.965 55.68,-8.993l-0,205.875l-61.419,-157.038Zm-15.912,-40.683l2.36,0.382c5.908,6.629 8.103,9.093 8.507,27.402l-10.867,-27.784Zm524.9,-513.594l-301.365,148.478l0,-366.39l92.784,-0c66.542,-0 86.862,-1.625 117.087,11.965c30.225,13.59 77.096,86.466 83.614,109.904c9.492,34.132 14.48,70.387 7.88,96.043Zm394.759,-16.267c0.142,0.65 0.265,1.358 0.373,2.139c-0.141,-0.65 -0.265,-1.359 -0.373,-2.139Zm-1469.4,731.546l-3.338,23.172c-3.019,3.081 -4.733,4.83 -9.444,5.735l3.338,-23.172c3.019,-3.081 4.733,-4.83 9.444,-5.735Zm845.698,-309.27l-8.158,56.629c-6.984,7.128 -6.984,7.128 -53.244,6.032l52.899,8.546c6.639,7.45 6.639,7.45 5.466,56.952l8.157,-56.629c6.984,-7.128 6.984,-7.128 53.244,-6.031l-52.899,-8.547c-6.638,-7.45 -6.638,-7.45 -5.465,-56.952Zm918.473,-931.706l-8.157,56.629c-6.984,7.128 -6.984,7.128 -53.244,6.032l52.899,8.546c6.638,7.45 6.638,7.45 5.465,56.952l8.158,-56.629c6.984,-7.128 6.984,-7.128 53.244,-6.031l-52.899,-8.547c-6.639,-7.45 -6.639,-7.45 -5.466,-56.952Zm-849.504,1098.11l-8.157,56.629c-6.984,7.128 -6.984,7.128 -53.244,6.031l52.899,8.547c6.639,7.45 6.639,7.45 5.466,56.952l8.157,-56.629c6.984,-7.128 6.984,-7.128 53.244,-6.032l-52.899,-8.546c-6.639,-7.45 -6.639,-7.45 -5.466,-56.952Zm969.27,-711.388l-8.157,56.629c-6.985,7.127 -6.985,7.127 -53.244,6.031l52.898,8.546c6.639,7.451 6.639,7.451 5.466,56.952l8.157,-56.629c6.984,-7.127 6.984,-7.127 53.244,-6.031l-52.898,-8.547c-6.639,-7.45 -6.639,-7.45 -5.466,-56.951Z" style="fill:#001f4e;"/></g></g></svg>